<svg width="44" height="50" viewBox="0 0 44 50" fill="none" xmlns="http://www.w3.org/2000/svg">
<path d="M4.55919 44.5295L0.637207 0.541931H43.7306L39.8052 44.5222L22.1575 49.4154L4.55919 44.5295Z" fill="url(#paint0_linear_304_2013)"/>
<path d="M22.1846 45.6755L36.4441 41.722L39.7989 4.13889H22.1846V45.6755Z" fill="url(#paint1_linear_304_2013)"/>
<path d="M22.1841 20.0753H29.3228L29.8164 14.551H22.1841V9.15604H35.7122L35.5829 10.6034L34.2571 25.4698H22.1841V20.0753Z" fill="url(#paint2_linear_304_2013)"/>
<path d="M22.2166 34.0863L22.1929 34.0931L16.1847 32.4705L15.8001 28.1678H10.3853L11.1414 36.6385L22.1919 39.7061L22.2171 39.6988L22.2166 34.0863Z" fill="url(#paint3_linear_304_2013)"/>
<path d="M28.8647 25.2416L28.2147 32.4666L22.1978 34.0907V39.7036L33.2575 36.6385L33.3389 35.7269L34.2776 25.2416H28.8647Z" fill="url(#paint4_linear_304_2013)"/>
<path d="M22.203 9.15604V14.5505H9.17188L9.06338 13.3381L8.8178 10.6034L8.68848 9.15604H22.203ZM22.1841 20.0758V25.4708H16.252L16.144 24.2584L15.8979 21.5231L15.7686 20.0758H22.1841Z" fill="url(#paint5_linear_304_2013)"/>
<defs>
<linearGradient id="paint0_linear_304_2013" x1="22.1842" y1="-13.5" x2="21.1842" y2="66.5" gradientUnits="userSpaceOnUse">
<stop offset="0.221154" stop-color="#1882D0"/>
<stop offset="1" stop-color="#093250"/>
</linearGradient>
<linearGradient id="paint1_linear_304_2013" x1="31.1841" y1="-14" x2="31.1841" y2="64" gradientUnits="userSpaceOnUse">
<stop offset="0.326923" stop-color="#33A9DC"/>
<stop offset="1" stop-color="#1B5B76"/>
</linearGradient>
<linearGradient id="paint2_linear_304_2013" x1="17.1841" y1="17" x2="40.6841" y2="17" gradientUnits="userSpaceOnUse">
<stop offset="0.132862" stop-color="white"/>
<stop offset="1" stop-color="#999999"/>
</linearGradient>
<linearGradient id="paint3_linear_304_2013" x1="16.3012" y1="28.1678" x2="16.3012" y2="39.7061" gradientUnits="userSpaceOnUse">
<stop offset="0.0432692" stop-color="#EBEBEB"/>
<stop offset="1" stop-color="#858585"/>
</linearGradient>
<linearGradient id="paint4_linear_304_2013" x1="18.1842" y1="35" x2="41.1842" y2="34.5" gradientUnits="userSpaceOnUse">
<stop offset="0.0769231" stop-color="white"/>
<stop offset="1" stop-color="#999999"/>
</linearGradient>
<linearGradient id="paint5_linear_304_2013" x1="15.4457" y1="9.15604" x2="15.1841" y2="59.5" gradientUnits="userSpaceOnUse">
<stop stop-color="#EBEBEB"/>
<stop offset="1" stop-color="#858585"/>
</linearGradient>
</defs>
</svg>
