<svg width="128" height="128" viewBox="0 0 128 128" fill="none" xmlns="http://www.w3.org/2000/svg">
<g clip-path="url(#clip0_307_2040)">
<path d="M64.0529 1.55911C55.674 1.58268 47.382 3.25824 39.6514 6.4899C31.9208 9.72157 24.9033 14.4459 19.0005 20.3926C13.0977 26.3392 8.42539 33.3915 5.25102 41.1458C2.07665 48.9001 0.462492 57.2043 0.500914 65.5831C0.471595 78.9824 4.65001 92.0527 12.4467 102.95C20.2433 113.847 31.2647 122.022 43.9559 126.32C47.1119 126.956 48.2699 124.942 48.2699 123.246C48.2699 121.762 48.1649 116.675 48.1649 111.375C30.4879 115.191 26.8059 103.742 26.8059 103.742C23.9659 96.3221 19.7569 94.4141 19.7569 94.4141C13.9699 90.4921 20.1769 90.4921 20.1769 90.4921C26.5959 90.9161 29.9619 97.0641 29.9619 97.0641C35.6439 106.817 44.7989 104.061 48.4819 102.365C48.7464 99.1175 50.1646 96.0718 52.4799 93.7791C38.3809 92.2951 23.5439 86.7841 23.5439 62.1911C23.4678 55.8479 25.7991 49.7116 30.0679 45.0191C29.4359 43.4291 27.2279 36.8561 30.7009 28.0591C30.7009 28.0591 36.0649 26.3621 48.1659 34.6311C53.3462 33.2299 58.6885 32.5171 64.0549 32.5111C69.4214 32.5171 74.7636 33.2299 79.9439 34.6311C92.0439 26.3621 97.4109 28.0581 97.4109 28.0581C100.883 36.8561 98.6729 43.4291 98.0409 45.0191C100.483 47.6542 102.305 50.802 103.373 54.2321C105.011 53.0126 106.999 52.3549 109.041 52.3571C110.484 52.3592 111.909 52.6863 113.209 53.3141L122.217 57.6701C122.723 57.913 123.285 58.012 123.843 57.9561C124.402 57.9001 124.934 57.6915 125.381 57.3531C125.828 57.0147 126.174 56.5594 126.38 56.0374C126.585 55.5154 126.643 54.9468 126.547 54.3941C124.019 39.6388 116.365 26.2489 104.933 16.5834C93.5014 6.91792 79.0251 1.59702 64.0549 1.55811L64.0529 1.55911Z" fill="url(#paint0_radial_307_2040)"/>
<path d="M24.0134 93.2733C23.8701 93.5901 23.3681 93.6842 22.9128 93.4675C22.4454 93.2583 22.1861 92.8295 22.3369 92.5112C22.4726 92.1885 22.9761 92.0973 23.442 92.314C23.9093 92.5232 24.1732 92.9565 24.0134 93.2733ZM26.611 96.1482C26.305 96.4276 25.7064 96.2976 25.2994 95.8523C24.8803 95.4085 24.8019 94.8153 25.1124 94.5314C25.426 94.2505 26.0065 94.382 26.4241 94.8258C26.8462 95.274 26.9291 95.8613 26.6095 96.1467L26.611 96.1482ZM29.1394 99.806C28.7474 100.078 28.1036 99.8239 27.7071 99.2576C27.3121 98.6943 27.3121 98.0174 27.7146 97.744C28.1127 97.472 28.7459 97.7171 29.1469 98.2774C29.5419 98.8527 29.5419 99.5311 29.1394 99.806ZM32.6039 103.344C32.2526 103.728 31.5033 103.625 30.9561 103.101C30.3952 102.588 30.2399 101.861 30.5912 101.477C30.9485 101.093 31.7008 101.2 32.2526 101.72C32.8105 102.231 32.9793 102.962 32.6039 103.344ZM37.3862 105.397C37.2294 105.896 36.5087 106.122 35.782 105.911C35.0553 105.693 34.5819 105.111 34.7267 104.608C34.8774 104.106 35.6041 103.872 36.3353 104.097C37.059 104.313 37.5354 104.889 37.3862 105.397ZM42.6328 105.778C42.6524 106.301 42.0357 106.738 41.2729 106.747C40.507 106.765 39.8858 106.34 39.8768 105.823C39.8768 105.294 40.4798 104.864 41.2457 104.852C42.0086 104.837 42.6328 105.258 42.6328 105.778ZM47.5175 104.955C47.608 105.466 47.0803 105.992 46.322 106.131C45.5772 106.269 44.8897 105.952 44.7932 105.444C44.7028 104.921 45.241 104.398 45.9843 104.26C46.7426 104.129 47.421 104.435 47.5175 104.955Z" fill="url(#paint1_radial_307_2040)"/>
<g clip-path="url(#clip1_307_2040)">
<path fill-rule="evenodd" clip-rule="evenodd" d="M107.676 126.352C108.234 126.569 108.829 126.669 109.427 126.646C110.024 126.623 110.611 126.478 111.15 126.218L125.564 119.282C126.306 118.925 126.932 118.365 127.371 117.668C127.809 116.97 128.041 116.163 128.041 115.339V68.3104C128.041 67.4865 127.809 66.6793 127.371 65.9816C126.932 65.284 126.306 64.7243 125.564 64.3669L111.15 57.432C110.335 57.0401 109.419 56.9111 108.528 57.0628C107.637 57.2145 106.815 57.6394 106.176 58.2787L78.5823 83.4529L66.5635 74.3291C66.0213 73.9175 65.3521 73.7086 64.672 73.7388C63.992 73.769 63.3439 74.0363 62.8403 74.4943L58.9854 78.0008C58.685 78.2741 58.4449 78.607 58.2805 78.9783C58.1161 79.3497 58.0311 79.7512 58.0308 80.1573C58.0305 80.5634 58.1149 80.9651 58.2787 81.3367C58.4425 81.7082 58.6821 82.0415 58.9821 82.3152L69.4054 91.8246L58.9827 101.335C58.6828 101.608 58.4434 101.942 58.2797 102.313C58.116 102.685 58.0316 103.086 58.0319 103.492C58.0322 103.898 58.1172 104.3 58.2815 104.671C58.4458 105.042 58.6857 105.375 58.9859 105.648L62.8409 109.155C63.3444 109.613 63.9924 109.881 64.6725 109.911C65.3526 109.941 66.0218 109.732 66.564 109.321L78.5828 100.197L106.177 125.371C106.603 125.798 107.114 126.132 107.676 126.352ZM110.549 75.9317L89.6122 91.8246L110.55 107.718L110.549 75.9317Z" fill="white"/>
<path d="M125.564 64.3787L111.139 57.4324C110.324 57.0403 109.408 56.9111 108.516 57.0628C107.625 57.2145 106.803 57.6395 106.163 58.2791L58.9404 101.335C58.6403 101.608 58.4007 101.942 58.2368 102.313C58.0729 102.685 57.9885 103.086 57.9888 103.493C57.9891 103.899 58.0742 104.3 58.2386 104.671C58.403 105.043 58.6432 105.376 58.9436 105.649L62.8008 109.155C63.3047 109.613 63.9531 109.881 64.6335 109.911C65.3139 109.941 65.9835 109.733 66.5261 109.321L123.394 66.1799C125.301 64.7326 128.042 66.0934 128.042 68.488V68.3207C128.042 67.497 127.809 66.6901 127.371 65.9926C126.933 65.2952 126.307 64.7362 125.564 64.3787Z" fill="#0065A9"/>
<path d="M125.564 119.271L111.139 126.217C110.324 126.609 109.408 126.738 108.516 126.587C107.625 126.435 106.803 126.01 106.163 125.371L58.9401 82.3147C58.64 82.0411 58.4004 81.7079 58.2366 81.3364C58.0727 80.9648 57.9882 80.5632 57.9885 80.1571C57.9888 79.751 58.0739 79.3495 58.2384 78.9782C58.4028 78.6069 58.6429 78.274 58.9434 78.0009L62.8005 74.4944C63.3044 74.0362 63.9528 73.7687 64.6332 73.7385C65.3137 73.7082 65.9832 73.917 66.5258 74.3286L123.393 117.469C125.301 118.917 128.041 117.556 128.041 115.162V115.329C128.041 116.153 127.809 116.96 127.371 117.657C126.932 118.354 126.306 118.914 125.564 119.271Z" fill="#007ACC"/>
<path d="M111.139 126.218C110.324 126.61 109.408 126.739 108.516 126.587C107.625 126.436 106.802 126.011 106.163 125.371C107.778 126.986 110.539 125.842 110.539 123.558V60.0903C110.539 57.8067 107.778 56.663 106.163 58.2782C106.802 57.6387 107.625 57.2137 108.516 57.0619C109.408 56.9101 110.324 57.0391 111.139 57.431L125.562 64.3675C126.305 64.7246 126.931 65.2842 127.37 65.9819C127.809 66.6796 128.041 67.4869 128.041 68.311V115.339C128.041 116.163 127.809 116.971 127.37 117.668C126.931 118.366 126.305 118.926 125.562 119.283L111.139 126.218Z" fill="#1F9CF0"/>
<path style="mix-blend-mode:overlay" opacity="0.25" fill-rule="evenodd" clip-rule="evenodd" d="M107.635 126.352C108.192 126.569 108.787 126.669 109.385 126.646C109.982 126.623 110.568 126.478 111.107 126.219L125.521 119.283C126.263 118.925 126.89 118.365 127.328 117.668C127.766 116.97 127.999 116.163 127.999 115.339V68.3107C127.999 67.4868 127.766 66.6795 127.328 65.9819C126.89 65.2842 126.263 64.7245 125.521 64.3671L111.107 57.4323C110.293 57.0404 109.377 56.9114 108.485 57.0631C107.594 57.2147 106.773 57.6397 106.134 58.279L78.5398 83.4531L66.521 74.3299C65.9788 73.9183 65.3096 73.7094 64.6295 73.7396C63.9495 73.7698 63.3014 74.0371 62.7978 74.4951L58.9429 78.0016C58.6426 78.2749 58.4025 78.6079 58.2382 78.9792C58.0739 79.3505 57.9888 79.752 57.9885 80.1581C57.9882 80.5642 58.0726 80.9658 58.2364 81.3374C58.4002 81.709 58.6397 82.0423 58.9396 82.316L69.3629 91.8248L58.9402 101.334C58.6402 101.608 58.4006 101.941 58.2368 102.313C58.073 102.684 57.9885 103.086 57.9888 103.492C57.9891 103.898 58.0742 104.3 58.2386 104.671C58.4029 105.042 58.643 105.375 58.9434 105.649L62.7984 109.155C63.3019 109.613 63.9499 109.881 64.63 109.911C65.3101 109.941 65.9793 109.732 66.5215 109.321L78.5409 100.197L106.135 125.371C106.561 125.799 107.072 126.133 107.635 126.352ZM110.507 75.9314L89.5697 91.8248L110.507 107.718V75.9314Z" fill="url(#paint2_linear_307_2040)"/>
</g>
</g>
<defs>
<radialGradient id="paint0_radial_307_2040" cx="0" cy="0" r="1" gradientUnits="userSpaceOnUse" gradientTransform="translate(63.5462 63.9992) rotate(90) scale(62.4411 63.046)">
<stop offset="0.533654" stop-color="#0D29E3"/>
<stop offset="1" stop-color="#070F56"/>
</radialGradient>
<radialGradient id="paint1_radial_307_2040" cx="0" cy="0" r="1" gradientUnits="userSpaceOnUse" gradientTransform="translate(34.9108 99.4716) rotate(90) scale(7.27559 12.6168)">
<stop offset="0.533654" stop-color="#0D29E3"/>
<stop offset="1" stop-color="#070F56"/>
</radialGradient>
<linearGradient id="paint2_linear_307_2040" x1="92.9937" y1="57.0001" x2="92.9937" y2="126.65" gradientUnits="userSpaceOnUse">
<stop stop-color="white"/>
<stop offset="1" stop-color="white" stop-opacity="0"/>
</linearGradient>
<clipPath id="clip0_307_2040">
<rect width="128" height="128" fill="white"/>
</clipPath>
<clipPath id="clip1_307_2040">
<rect width="70.0531" height="69.6496" fill="white" transform="translate(57.9885 57)"/>
</clipPath>
</defs>
</svg>
