<svg viewBox="-30 -4 570 521" xmlns="http://www.w3.org/2000/svg" id="py-icon">
  <defs>
    <!-- Gradiente azul -->
    <linearGradient id="grad-blue" x1="0%" y1="0%" x2="0%" y2="100%">
      <stop offset="0%" style="stop-color:#0E8AF6; stop-opacity:1" />
      <stop offset="100%" style="stop-color:#074C87; stop-opacity:1" />
    </linearGradient>

    <!-- Gradiente amarelo -->
    <linearGradient id="grad-yellow" x1="0%" y1="0%" x2="0%" y2="100%">
      <stop offset="0%" style="stop-color:#E5AA00; stop-opacity:1" />
      <stop offset="100%" style="stop-color:#FFE500; stop-opacity:1" />
    </linearGradient>
  </defs>

  <style>
    @keyframes first {
      0% { stroke-dasharray: 0 1600; }
      50% { stroke-dasharray: 1600 1600; fill: transparent; }
      75%, 100% { fill: url(#grad-blue); }
    }

    @keyframes second {
      0% { stroke-dasharray: 0 1600; }
      50% { stroke-dasharray: 1600 1600; fill: transparent; }
      75%, 100% { fill: url(#grad-yellow); }
    }

    #py-icon { fill: transparent; }
    .first-child {
      stroke: #3670A0;
      stroke-width: 7px;
      animation: first 5s linear infinite;
    }
    .last-child {
      stroke: #FED140;
      stroke-width: 7px;
      animation: second 5s linear infinite;
    }
  </style>

  <path
    class="first-child"
    d="M163.206 136.778C188.202 136.778 213.198 137.164 238.162 136.512C244.783 136.339 256.663 141.816 256.13 128.054C255.724 116.853 245.336 120.906 239.04 120.806C210.843 120.36 182.552 119.289 154.468 121.052C134.482 122.297 128.593 114.71 131.102 96.3821C131.967 90.0598 131.135 83.5112 131.268 77.0691C132.147 34.1707 142.515 19.5695 184.123 8.98794C229.963 -2.6584 276.874 -2.27241 322.588 7.76341C363.683 16.7877 380.753 48.7585 378.676 78.3336C376.147 114.424 378.104 150.827 378.071 187.097C378.011 232.704 354.445 256.909 308.466 257.541C270.598 258.06 232.684 258.473 194.837 257.421C149.729 256.157 116.64 293.625 116.414 336.084C116.414 339.305 116.966 342.632 116.327 345.74C113.08 361.333 126.057 386.536 109.526 391.168C84.3699 398.235 54.9146 398.235 32.7267 375.788C25.2065 368.201 18.8708 359.703 15.53 349.88C-2.2989 297.538 -5.11399 244.53 11.6701 191.37C22.1318 158.188 50.5888 137.55 85.8406 136.958C111.622 136.525 137.411 136.871 163.192 136.871L163.206 136.778ZM209.139 62.7741C208.061 50.1095 201.253 40.8656 187.204 40.4797C171.837 40.0804 163.898 49.3708 163.878 64.4911C163.865 78.5066 171.498 87.4843 185.447 87.8903C200.773 88.3362 208.194 78.8394 209.139 62.7741Z" />

  <path
    class="last-child"
    d="M356.135 393.365C327.918 393.365 299.687 393.118 271.47 393.564C265.114 393.644 254.453 389.625 254.12 400.492C253.747 412.817 265.187 409.61 272.455 409.683C300.672 410.036 328.916 410.335 357.127 409.55C371.622 409.15 377.538 411.926 378.623 429.016C383.527 506.381 349.953 513.069 288.027 527.145C252.503 535.217 214.416 530.938 179.384 515.245C150.414 502.288 132.639 483.614 134.881 448.648C137.104 414.135 137.477 379.176 134.821 344.696C131.627 303.082 157.515 272.476 207.861 272.462C241.735 272.456 275.835 269.874 309.417 272.961C357.433 277.367 395.081 235.746 396.731 187.351C396.798 185.747 396.385 184.023 396.798 182.533C401.03 167.659 385.976 145.55 406.115 138.037C436.548 126.69 470.868 138.616 486.415 161.709C506.014 190.785 508.662 224.998 511.83 258.407C515.258 294.417 505.155 328.318 490.028 360.802C479.753 382.83 462.476 393.478 438.405 393.511C410.986 393.531 383.574 393.511 356.149 393.511C356.135 393.458 356.135 393.411 356.135 393.365ZM348.788 465.239C345.773 451.49 339.571 442.106 323.599 441.714C306.988 441.314 302.702 453.739 302.788 464.833C302.881 476.626 306.169 491.134 324.151 489.776C339.098 488.632 346.386 479.375 348.788 465.239Z" />
</svg>
