<svg width="1155" height="851" viewBox="0 0 1155 851" fill="none" xmlns="http://www.w3.org/2000/svg">
<g clip-path="url(#clip0_318_2078)">
<path fill-rule="evenodd" clip-rule="evenodd" d="M875.275 386.141C838.221 386.141 807.072 360.749 798.214 326.5H706.981C687.495 326.5 670.961 340.524 667.713 359.716L664.465 379.35C661.513 397.361 652.36 413.895 638.631 426C652.36 438.105 661.513 454.492 664.465 472.65L667.713 492.284C670.961 511.476 687.495 525.5 706.981 525.5H718.644C727.501 491.251 758.651 465.859 795.705 465.859C839.697 465.859 875.275 501.437 875.275 545.43C875.275 589.422 839.697 625 795.705 625C758.651 625 727.501 599.608 718.644 565.359H706.981C668.156 565.359 634.94 537.31 628.444 498.927L625.197 479.293C621.949 460.102 605.415 446.077 585.928 446.077H554.336C545.478 480.326 514.329 505.718 477.275 505.718C440.221 505.718 409.072 480.326 400.214 446.077H355.484C346.626 480.326 315.477 505.718 278.423 505.718C234.578 505.423 199 469.845 199 425.852C199 381.86 234.578 346.282 278.57 346.282C315.625 346.282 346.774 371.674 355.631 405.923H400.362C409.22 371.674 440.369 346.282 477.423 346.282C514.477 346.282 545.626 371.674 554.484 405.923H586.076C605.562 405.923 622.096 391.898 625.344 372.707L628.592 353.073C634.94 314.69 668.156 286.641 707.129 286.641H798.362C807.22 252.392 838.369 227 875.423 227C919.415 227 954.993 262.578 954.993 306.57C954.993 350.563 919.268 386.141 875.275 386.141ZM875.275 346.282C897.272 346.282 914.987 328.419 914.987 306.57C914.987 284.722 897.124 266.859 875.275 266.859C853.427 266.859 835.564 284.722 835.564 306.57C835.564 328.419 853.279 346.282 875.275 346.282ZM278.57 465.564C300.567 465.564 318.282 447.701 318.282 425.852C318.282 404.004 300.419 386.141 278.57 386.141C256.722 386.141 238.711 403.856 238.711 425.852C238.711 447.849 256.574 465.564 278.57 465.564ZM517.282 425.852C517.282 447.849 499.419 465.564 477.57 465.564C455.722 465.564 437.859 447.701 437.859 425.852C437.859 404.004 455.722 386.141 477.57 386.141C499.419 386.141 517.282 403.856 517.282 425.852ZM835.564 545.134C835.564 567.131 817.701 584.846 795.852 584.846C773.856 584.846 756.141 566.983 756.141 545.134C756.141 523.286 774.004 505.423 795.852 505.423C817.701 505.423 835.564 523.286 835.564 545.134Z" fill="#EA4B71"/>
</g>
<defs>
<clipPath id="clip0_318_2078">
<rect width="755.993" height="398" fill="white" transform="translate(199 227)"/>
</clipPath>
</defs>
</svg>
