<svg width="54" height="45" viewBox="0 0 54 45" fill="none" xmlns="http://www.w3.org/2000/svg">
<path d="M27.0039 10C21.4578 10 18.0009 12.7951 16.6254 18.3333C18.7068 15.5461 21.145 14.5196 23.896 15.2254C25.4681 15.6184 26.6109 16.7613 27.8623 18.0567C29.9075 20.138 32.2655 22.5401 37.4186 22.5401C42.9569 22.5401 46.4138 19.745 47.7893 14.2068C45.708 16.994 43.2697 18.0205 40.5187 17.3147C38.9466 16.9216 37.8116 15.7788 36.5524 14.4834C34.5072 12.4021 32.1492 10 27.0039 10ZM16.5892 22.4599C11.0431 22.4599 7.58622 25.2471 6.21069 30.7917C8.29206 27.9982 10.7303 26.9795 13.4813 27.6853C15.0534 28.0783 16.1962 29.2212 17.4476 30.5166C19.4928 32.5979 21.8508 35 27.0039 35C32.5422 35 35.9991 32.2049 37.3746 26.6667C35.2933 29.4539 32.855 30.4804 30.104 29.7667C28.532 29.3737 27.3969 28.2387 26.1377 26.9433C24.1287 24.8541 21.7706 22.4599 16.5892 22.4599Z" fill="url(#paint0_linear_303_1987)"/>
<defs>
<linearGradient id="paint0_linear_303_1987" x1="27" y1="10" x2="27" y2="35" gradientUnits="userSpaceOnUse">
<stop offset="0.274038" stop-color="#38BDF8"/>
<stop offset="1" stop-color="#2287B4"/>
</linearGradient>
</defs>
</svg>
