<svg width="36" height="22" viewBox="0 0 36 22" fill="none" xmlns="http://www.w3.org/2000/svg">
<path d="M17.7512 0.473267C13.0656 0.473267 10.145 2.83467 8.98291 7.51366C10.7413 5.15889 12.8013 4.29162 15.1255 4.88795C16.4536 5.21998 17.4192 6.18553 18.4763 7.27991C20.2042 9.03834 22.1964 11.0677 26.55 11.0677C31.229 11.0677 34.1495 8.70631 35.3117 4.02733C33.5532 6.38209 31.4933 7.24936 29.1691 6.65303C27.841 6.321 26.8821 5.35545 25.8182 4.26108C24.0903 2.50264 22.0981 0.473267 17.7512 0.473267ZM8.95236 11C4.26674 11 1.34619 13.3548 0.184082 18.0391C1.94252 15.679 4.00244 14.8183 6.32666 15.4147C7.65479 15.7467 8.62033 16.7122 9.67752 17.8066C11.4054 19.5651 13.3976 21.5944 17.7512 21.5944C22.4302 21.5944 25.3507 19.233 26.5128 14.554C24.7544 16.9088 22.6945 17.7761 20.3703 17.1731C19.0421 16.8411 18.0832 15.8822 17.0194 14.7878C15.3221 13.0227 13.3299 11 8.95236 11Z" fill="url(#paint0_linear_299_1964)"/>
<defs>
<linearGradient id="paint0_linear_299_1964" x1="17.7479" y1="0.473267" x2="17.7479" y2="21.5944" gradientUnits="userSpaceOnUse">
<stop offset="0.274038" stop-color="#38BDF8"/>
<stop offset="1" stop-color="#2287B4"/>
</linearGradient>
</defs>
</svg>
