<svg width="54" height="45" viewBox="0 0 54 45" fill="none" xmlns="http://www.w3.org/2000/svg">
<path d="M27.0047 7.46826C20.3353 7.46826 16.1782 10.8294 14.5241 17.4894C17.027 14.1377 19.9591 12.9032 23.2673 13.752C25.1577 14.2246 26.5321 15.599 28.0369 17.1567C30.4963 19.6596 33.3319 22.5482 39.5288 22.5482C46.1887 22.5482 50.3458 19.187 51.9999 12.527C49.497 15.8788 46.5649 17.1132 43.2567 16.2644C41.3663 15.7918 40.0014 14.4175 38.4871 12.8598C36.0277 10.3568 33.1921 7.46826 27.0047 7.46826ZM14.4806 22.4518C7.81118 22.4518 3.65412 25.8035 2 32.4711C4.50293 29.1118 7.43498 27.8868 10.7432 28.7356C12.6337 29.2082 14.008 30.5825 15.5128 32.1402C17.9722 34.6432 20.8079 37.5317 27.0047 37.5317C33.6647 37.5317 37.8217 34.1706 39.4758 27.5106C36.9729 30.8623 34.0409 32.0968 30.7326 31.2385C28.8422 30.7659 27.4773 29.401 25.9631 27.8433C23.5471 25.3309 20.7115 22.4518 14.4806 22.4518Z" fill="url(#paint0_linear_303_1987)"/>
<defs>
<linearGradient id="paint0_linear_303_1987" x1="27" y1="7.46826" x2="27" y2="37.5317" gradientUnits="userSpaceOnUse">
<stop offset="0.274038" stop-color="#38BDF8"/>
<stop offset="1" stop-color="#2287B4"/>
</linearGradient>
</defs>
</svg>
