<svg width="95" height="95" viewBox="0 0 95 95" fill="none" xmlns="http://www.w3.org/2000/svg">
<g clip-path="url(#clip0_306_2024)">
<mask id="mask0_306_2024" style="mask-type:alpha" maskUnits="userSpaceOnUse" x="-1" y="0" width="95" height="94">
<path fill-rule="evenodd" clip-rule="evenodd" d="M65.8853 93.3013C66.6348 93.5935 67.4364 93.7284 68.2403 93.6975C69.0442 93.6666 69.8331 93.4707 70.5579 93.1218L89.9498 83.7905C90.9484 83.3097 91.7911 82.5568 92.3808 81.6184C92.9705 80.6799 93.2833 79.5941 93.2832 78.4857V15.2152C93.2834 14.1068 92.9707 13.0208 92.381 12.0822C91.7913 11.1436 90.9485 10.3906 89.9498 9.90976L70.5579 0.579931C69.4622 0.0526993 68.2296 -0.12089 67.0309 0.0831868C65.8321 0.287264 64.7264 0.858916 63.8669 1.71903L26.7433 35.5872L10.5737 23.3125C9.84434 22.7587 8.94406 22.4777 8.02912 22.5183C7.11418 22.5589 6.24232 22.9185 5.56482 23.5347L0.378559 28.2523C-0.0256077 28.6199 -0.348598 29.0678 -0.569749 29.5673C-0.790901 30.0669 -0.905345 30.6071 -0.905761 31.1535C-0.906176 31.6998 -0.792554 32.2402 -0.572163 32.7401C-0.351771 33.24 -0.0294631 33.6884 0.374143 34.0566L14.3972 46.8501L0.374879 59.6443C-0.0285074 60.0126 -0.350622 60.461 -0.570877 60.9608C-0.791131 61.4606 -0.90468 62.0009 -0.904264 62.5471C-0.903849 63.0933 -0.789478 63.6334 -0.568464 64.1329C-0.347449 64.6324 -0.0246521 65.0803 0.379294 65.448L5.56556 70.1655C6.2429 70.782 7.11473 71.1418 8.02971 71.1825C8.94469 71.2233 9.84504 70.9423 10.5745 70.3885L26.744 58.1145L63.8676 91.9819C64.4416 92.557 65.1283 93.0063 65.8853 93.3013ZM69.75 25.4686L41.5824 46.8501L69.7507 68.2324L69.75 25.4686Z" fill="white"/>
</mask>
<g mask="url(#mask0_306_2024)">
<path d="M89.9506 9.92522L70.5433 0.579938C69.4471 0.0523572 68.2141 -0.121421 67.0148 0.0826582C65.8155 0.286737 64.7093 0.858579 63.8493 1.71903L0.317569 59.6443C-0.0861199 60.0124 -0.408507 60.4607 -0.628957 60.9606C-0.849406 61.4604 -0.963061 62.0008 -0.962645 62.5471C-0.96223 63.0934 -0.847753 63.6336 -0.626543 64.1332C-0.405333 64.6327 -0.0822644 65.0805 0.321984 65.448L5.51119 70.1655C6.18914 70.7819 7.06144 71.1417 7.97684 71.1824C8.89225 71.2232 9.79305 70.9423 10.5231 70.3885L87.03 12.3484C89.5967 10.4013 93.2833 12.2321 93.2833 15.4537V15.2285C93.2832 14.1204 92.9704 13.0348 92.3809 12.0965C91.7913 11.1582 90.949 10.4061 89.9506 9.92522Z" fill="#0065A9"/>
<g filter="url(#filter0_d_306_2024)">
<path d="M89.9506 83.7757L70.5433 93.1196C69.4473 93.6473 68.2143 93.8213 67.015 93.6175C65.8157 93.4137 64.7095 92.8421 63.8493 91.9819L0.317569 34.0559C-0.0861199 33.6878 -0.408507 33.2395 -0.628957 32.7396C-0.849406 32.2398 -0.963061 31.6994 -0.962645 31.1531C-0.96223 30.6068 -0.847753 30.0666 -0.626543 29.5671C-0.405333 29.0676 -0.0822644 28.6197 0.321984 28.2523L5.51119 23.5347C6.18914 22.9183 7.06144 22.5585 7.97684 22.5178C8.89225 22.4771 9.79305 22.758 10.5231 23.3118L87.03 81.3511C89.5967 83.2989 93.2833 81.4681 93.2833 78.2466V78.4717C93.2832 79.5799 92.9704 80.6655 92.3809 81.6038C91.7913 82.542 90.949 83.2949 89.9506 83.7757Z" fill="#007ACC"/>
</g>
<g filter="url(#filter1_d_306_2024)">
<path d="M70.5441 93.1217C69.4477 93.6489 68.2145 93.8224 67.0152 93.6182C65.8158 93.414 64.7096 92.8422 63.8494 91.9818C66.0216 94.1541 69.7362 92.6154 69.7362 89.5432V4.15605C69.7362 1.08388 66.0216 -0.454785 63.8494 1.71818C64.7096 0.857825 65.8158 0.286008 67.0152 0.0818107C68.2145 -0.122387 69.4477 0.051124 70.5441 0.578347L89.9477 9.91038C90.9469 10.3909 91.7901 11.1438 92.3802 12.0824C92.9703 13.021 93.2834 14.1072 93.2833 15.2159V78.4856C93.2834 79.5943 92.9703 80.6805 92.3802 81.6191C91.7901 82.5577 90.9469 83.3106 89.9477 83.7911L70.5441 93.1217Z" fill="#1F9CF0"/>
</g>
<path style="mix-blend-mode:overlay" opacity="0.25" fill-rule="evenodd" clip-rule="evenodd" d="M65.8287 93.3018C66.5781 93.5939 67.3796 93.7287 68.1833 93.6978C68.987 93.667 69.7758 93.471 70.5006 93.1223L89.8924 83.791C90.8912 83.3102 91.7339 82.5571 92.3236 81.6186C92.9133 80.68 93.226 79.594 93.2258 78.4855V15.2157C93.226 14.1073 92.9133 13.0212 92.3236 12.0827C91.7339 11.1441 90.8912 10.391 89.8924 9.91025L70.5006 0.580419C69.4048 0.0531876 68.1723 -0.120402 66.9735 0.0836751C65.7748 0.287752 64.6691 0.859404 63.8095 1.71951L26.6859 35.5877L10.5164 23.3137C9.78697 22.7599 8.88669 22.4789 7.97175 22.5195C7.05682 22.5601 6.18496 22.9197 5.50746 23.536L0.321195 28.2535C-0.0828707 28.6211 -0.40577 29.0691 -0.626857 29.5686C-0.847943 30.0682 -0.962352 30.6084 -0.962767 31.1547C-0.963183 31.701 -0.849596 32.2414 -0.62927 32.7413C-0.408943 33.2412 -0.0867261 33.6896 0.31678 34.0579L14.3399 46.8506L0.317516 59.6441C-0.0860909 60.0123 -0.408399 60.4607 -0.62879 60.9606C-0.849182 61.4605 -0.962804 62.0009 -0.962388 62.5472C-0.961973 63.0936 -0.847529 63.6338 -0.626377 64.1334C-0.405225 64.6329 -0.0822355 65.0809 0.321931 65.4485L5.50819 70.166C6.18561 70.7823 7.05742 71.1421 7.97236 71.1828C8.8873 71.2235 9.78762 70.9427 10.5171 70.3889L26.6874 58.1142L63.811 91.9824C64.3848 92.5574 65.0719 93.0067 65.8287 93.3018ZM69.6934 25.4683L41.5251 46.8506L69.6934 68.2322V25.4683Z" fill="url(#paint0_linear_306_2024)"/>
</g>
</g>
<defs>
<filter id="filter0_d_306_2024" x="-7.09473" y="16.3818" width="106.51" height="83.4507" filterUnits="userSpaceOnUse" color-interpolation-filters="sRGB">
<feFlood flood-opacity="0" result="BackgroundImageFix"/>
<feColorMatrix in="SourceAlpha" type="matrix" values="0 0 0 0 0 0 0 0 0 0 0 0 0 0 0 0 0 0 127 0" result="hardAlpha"/>
<feOffset/>
<feGaussianBlur stdDeviation="3.06604"/>
<feColorMatrix type="matrix" values="0 0 0 0 0 0 0 0 0 0 0 0 0 0 0 0 0 0 0.25 0"/>
<feBlend mode="overlay" in2="BackgroundImageFix" result="effect1_dropShadow_306_2024"/>
<feBlend mode="normal" in="SourceGraphic" in2="effect1_dropShadow_306_2024" result="shape"/>
</filter>
<filter id="filter1_d_306_2024" x="57.7173" y="-6.13354" width="41.698" height="105.967" filterUnits="userSpaceOnUse" color-interpolation-filters="sRGB">
<feFlood flood-opacity="0" result="BackgroundImageFix"/>
<feColorMatrix in="SourceAlpha" type="matrix" values="0 0 0 0 0 0 0 0 0 0 0 0 0 0 0 0 0 0 127 0" result="hardAlpha"/>
<feOffset/>
<feGaussianBlur stdDeviation="3.06604"/>
<feColorMatrix type="matrix" values="0 0 0 0 0 0 0 0 0 0 0 0 0 0 0 0 0 0 0.25 0"/>
<feBlend mode="overlay" in2="BackgroundImageFix" result="effect1_dropShadow_306_2024"/>
<feBlend mode="normal" in="SourceGraphic" in2="effect1_dropShadow_306_2024" result="shape"/>
</filter>
<linearGradient id="paint0_linear_306_2024" x1="46.1316" y1="-0.000973809" x2="46.1316" y2="93.7021" gradientUnits="userSpaceOnUse">
<stop stop-color="white"/>
<stop offset="1" stop-color="white" stop-opacity="0"/>
</linearGradient>
<clipPath id="clip0_306_2024">
<rect width="94.1887" height="94.1887" fill="white"/>
</clipPath>
</defs>
</svg>
