<svg width="1155" height="851" viewBox="0 0 1155 851" fill="none" xmlns="http://www.w3.org/2000/svg">
<path d="M633.894 31.242V820.617L159.685 738.56V115.523L633.894 31.103V31.242ZM562.329 264.282L502.957 267.929L464.881 503.644H464.013C462.137 492.493 455.154 453.444 442.647 386.673L420.448 273.314L364.724 276.093L342.421 386.673C329.393 451.082 322.132 488.567 320.221 499.093H319.7L285.828 281.965L234.76 284.674L289.476 558.534L346.242 562.182L367.608 455.598C380.114 393.065 387.41 356.726 388.973 346.791H390.536C392.656 357.387 399.43 394.524 411.902 458.308L433.267 568.019L494.758 571.666L563.544 264.212H562.328L562.329 264.282Z" fill="url(#paint0_linear_317_2077)"/>
<path d="M993.901 138.659V713.512C993.901 718.41 992.164 722.37 988.725 725.532C985.216 728.797 981.047 730.326 976.218 730.326H678.873V650.596H921.432V614.292H678.665V569.859H921.224V533.59H678.839V488.775H921.328V452.922H678.839V408.003H921.328V371.734H678.839V327.301H921.328V291.066H678.839V245.73H921.328V211.198H678.839V121.115H976.288C981.464 121.115 985.668 122.783 988.725 126.291C992.372 129.731 993.936 133.935 993.901 138.659Z" fill="url(#paint1_radial_317_2077)"/>
<defs>
<linearGradient id="paint0_linear_317_2077" x1="396.79" y1="31.103" x2="396.79" y2="820.617" gradientUnits="userSpaceOnUse">
<stop offset="0.317308" stop-color="#2999EC"/>
<stop offset="1" stop-color="#214884"/>
</linearGradient>
<radialGradient id="paint1_radial_317_2077" cx="0" cy="0" r="1" gradientUnits="userSpaceOnUse" gradientTransform="translate(679.165 425.86) scale(428.594 586.525)">
<stop offset="0.247879" stop-color="#2999EC"/>
<stop offset="1" stop-color="#214884"/>
</radialGradient>
</defs>
</svg>
